<?xml version="1.0" encoding="UTF-8" standalone="no"?>
<!-- This Source Code Form is subject to the terms of the Mozilla Public
   - License, v. 2.0. If a copy of the MPL was not distributed with this
   - file, You can obtain one at http://mozilla.org/MPL/2.0/. -->

<svg
   xmlns:dc="http://purl.org/dc/elements/1.1/"
   xmlns:cc="http://creativecommons.org/ns#"
   xmlns:rdf="http://www.w3.org/1999/02/22-rdf-syntax-ns#"
   xmlns:svg="http://www.w3.org/2000/svg"
   xmlns="http://www.w3.org/2000/svg"
   xmlns:sodipodi="http://sodipodi.sourceforge.net/DTD/sodipodi-0.dtd"
   xmlns:inkscape="http://www.inkscape.org/namespaces/inkscape"
   width="132px"
   height="48px"
   viewBox="0 0 132 48"
   id="svg2"
   version="1.1"
   inkscape:version="0.91 r13725"
   sodipodi:docname="about-wordmark.svg">
  <metadata
     id="metadata10">
    <rdf:RDF>
      <cc:Work
         rdf:about="">
        <dc:format>image/svg+xml</dc:format>
        <dc:type
           rdf:resource="http://purl.org/dc/dcmitype/StillImage" />
      </cc:Work>
    </rdf:RDF>
  </metadata>
  <defs
     id="defs8" />
  <sodipodi:namedview
     pagecolor="#ffffff"
     bordercolor="#666666"
     borderopacity="1"
     objecttolerance="10"
     gridtolerance="10"
     guidetolerance="10"
     inkscape:pageopacity="0"
     inkscape:pageshadow="2"
     inkscape:window-width="1215"
     inkscape:window-height="778"
     id="namedview6"
     showgrid="false"
     inkscape:zoom="2.4090909"
     inkscape:cx="91.154186"
     inkscape:cy="24"
     inkscape:window-x="0"
     inkscape:window-y="0"
     inkscape:window-maximized="0"
     inkscape:current-layer="svg2" />
  <g
     transform="scale(0.83939803,1.1913299)"
     style="font-style:normal;font-variant:normal;font-weight:normal;font-stretch:normal;font-size:42.56122971px;line-height:125%;font-family:'Levenim MT';-inkscape-font-specification:'Levenim MT';letter-spacing:0px;word-spacing:0px;fill:#a8e6db;fill-opacity:1;stroke:none;stroke-width:1px;stroke-linecap:butt;stroke-linejoin:miter;stroke-opacity:1"
     id="text4138">
    <path
       d="m 18.521413,24.115665 q 0,3.470569 -2.618513,5.881264 -2.535386,2.348349 -6.0475185,2.348349 -5.6942271,0 -9.22714164,-6.463156 L 3.2259712,24.323483 q 2.7432042,5.04999 6.3384644,5.04999 3.4082234,0 4.9460804,-2.639295 0.706583,-1.205347 0.706583,-2.556167 0,-1.537857 -1.039093,-3.013369 Q 12.827186,19.23193 9.1487985,16.488726 5.3872836,13.703958 4.1819363,12.082974 2.560952,9.9008792 2.560952,7.4070572 q 0,-4.2394975 3.6576056,-6.2345551 1.7248936,-0.93518331 3.761515,-0.93518331 4.3641884,0 8.0217944,5.00842591 L 15.508045,7.1368931 Q 14.115661,5.3080903 13.138914,4.5391618 11.684184,3.3961601 9.917727,3.3961601 q -1.7664573,0 -2.9510228,1.0598743 -1.246911,1.0806563 -1.246911,2.8263317 0,2.0574032 1.9327121,3.9693339 0.56111,0.540328 3.9485517,3.054932 3.117277,2.306785 4.655134,4.15637 2.265222,2.763986 2.265222,5.652663 z"
       style=""
       id="path4143" />
    <path
       d="m 46.743165,20.499623 -20.324649,0 q 0.08313,3.803079 2.369131,6.338464 2.410694,2.660077 6.151427,2.660077 3.616042,0 6.130646,-2.202876 1.143002,-0.997529 2.47304,-3.221187 l 2.452259,1.288475 q -2.286004,4.468098 -6.338465,6.026737 -1.974275,0.768928 -4.468097,0.768928 -5.091554,0 -8.437432,-3.36666 -3.325096,-3.366659 -3.325096,-8.458213 0,-4.301843 2.639295,-7.668503 3.345878,-4.2810608 8.956978,-4.2810608 5.777354,0 9.227141,4.3849708 2.452259,3.117277 2.493822,7.730848 z M 43.54276,17.985019 q -1.080656,-4.301843 -4.634352,-5.964391 -1.828803,-0.852056 -3.844643,-0.852056 -3.325096,0 -5.715008,2.140531 -1.745676,1.558639 -2.639295,4.675916 l 16.833298,0 z"
       style=""
       id="path4145" />
    <path
       d="m 62.516592,9.1527326 -1.517075,2.4522584 q -0.914401,-0.394855 -1.537857,-0.394855 -3.491351,0 -4.862953,4.904517 -0.540328,1.932712 -0.540328,7.813975 l 0,7.647721 -2.971805,0 0,-22.610653 2.971805,0 0,3.304314 q 2.639295,-3.8862058 5.881264,-3.8862058 1.205347,0 2.576949,0.7689284 z"
       style=""
       id="path4147" />
    <path
       d="m 88.577029,20.208677 q 0,4.94608 -3.325096,8.416649 -3.366659,3.532915 -8.271176,3.532915 -5.382499,0 -9.060887,-4.468098 l 0,12.157383 -2.888677,0 0,-30.88183 2.888677,0 0,4.15637 q 3.449787,-4.7382618 8.977759,-4.7382618 4.883735,0 8.271177,3.4705688 3.408223,3.470569 3.408223,8.354304 z m -2.930241,0.103909 q 0,-2.410694 -1.205347,-4.572007 -1.205347,-2.161312 -3.283532,-3.345878 -2.057403,-1.205347 -4.48888,-1.205347 -3.865424,0 -6.421592,2.660077 -2.535385,2.660077 -2.535385,6.546283 0,5.403281 4.468097,7.897103 2.140531,1.205347 4.530444,1.205347 2.410694,0 4.488879,-1.246911 2.01584,-1.226129 3.221187,-3.387441 1.226129,-2.161313 1.226129,-4.551226 z"
       style=""
       id="path4149" />
    <path
       d="m 116.23767,20.499623 -20.324647,0 q 0.08313,3.803079 2.36913,6.338464 2.410697,2.660077 6.151427,2.660077 3.61604,0 6.13065,-2.202876 1.143,-0.997529 2.47304,-3.221187 l 2.45226,1.288475 q -2.28601,4.468098 -6.33847,6.026737 -1.97427,0.768928 -4.4681,0.768928 -5.09155,0 -8.437428,-3.36666 -3.325096,-3.366659 -3.325096,-8.458213 0,-4.301843 2.639295,-7.668503 3.345878,-4.2810608 8.956979,-4.2810608 5.77735,0 9.22714,4.3849708 2.45226,3.117277 2.49382,7.730848 z m -3.2004,-2.514604 q -1.08066,-4.301843 -4.63436,-5.964391 -1.8288,-0.852056 -3.84464,-0.852056 -3.32509,0 -5.715007,2.140531 -1.745675,1.558639 -2.639295,4.675916 l 16.833302,0 z"
       style=""
       id="path4151" />
    <path
       d="m 141.4045,31.576349 -2.88868,0 0,-10.78578 q 0,-3.823861 -0.33251,-5.216245 -1.08066,-4.509661 -5.69423,-4.509661 -2.63929,0 -4.73826,1.745675 -2.07819,1.724894 -2.7432,4.322625 -0.41564,1.641766 -0.41564,6.151428 l 0,8.291958 -2.90946,0 0,-22.610653 2.90946,0 0,4.052461 q 3.47057,-4.6343528 8.47899,-4.6343528 2.47304,0 4.44732,1.2676928 1.99506,1.246911 2.93024,3.470569 0.95597,2.202876 0.95597,6.816447 l 0,11.637836 z"
       style=""
       id="path4153" />
    <path
       d="m 157.69747,11.459518 -4.61357,0 0,20.116831 -2.93024,0 0,-20.116831 -3.96934,0 0,-2.493822 3.96934,0 0,-8.3958676 2.93024,0 0,8.3958676 4.61357,0 0,2.493822 z"
       style=""
       id="path4155" />
  </g>
</svg>
